<?xml version="1.0" encoding="UTF-8" standalone="no"?>
<!-- Created with Inkscape (http://www.inkscape.org/) -->

<svg
   xmlns:dc="http://purl.org/dc/elements/1.1/"
   xmlns:cc="http://creativecommons.org/ns#"
   xmlns:rdf="http://www.w3.org/1999/02/22-rdf-syntax-ns#"
   xmlns:svg="http://www.w3.org/2000/svg"
   xmlns="http://www.w3.org/2000/svg"
   xmlns:sodipodi="http://sodipodi.sourceforge.net/DTD/sodipodi-0.dtd"
   xmlns:inkscape="http://www.inkscape.org/namespaces/inkscape"
   width="1024"
   height="640"
   id="svg8113"
   version="1.1"
   inkscape:version="0.48.5 r10040"
   sodipodi:docname="ordered.svg">
  <defs
     id="defs8115">
    <marker
       inkscape:stockid="Arrow1Mend"
       orient="auto"
       refY="0.0"
       refX="0.0"
       id="Arrow1Mend"
       style="overflow:visible;">
      <path
         id="path8706"
         d="M 0.0,0.0 L 5.0,-5.0 L -12.5,0.0 L 5.0,5.0 L 0.0,0.0 z "
         style="fill-rule:evenodd;stroke:#000000;stroke-width:1.0pt;"
         transform="scale(0.4) rotate(180) translate(10,0)" />
    </marker>
    <marker
       inkscape:stockid="Arrow2Lend"
       orient="auto"
       refY="0.0"
       refX="0.0"
       id="Arrow2Lend"
       style="overflow:visible;">
      <path
         id="path8718"
         style="fill-rule:evenodd;stroke-width:0.62500000;stroke-linejoin:round;"
         d="M 8.7185878,4.0337352 L -2.2072895,0.016013256 L 8.7185884,-4.0017078 C 6.9730900,-1.6296469 6.9831476,1.6157441 8.7185878,4.0337352 z "
         transform="scale(1.1) rotate(180) translate(1,0)" />
    </marker>
    <marker
       inkscape:stockid="Arrow1Lend"
       orient="auto"
       refY="0.0"
       refX="0.0"
       id="Arrow1Lend"
       style="overflow:visible;">
      <path
         id="path8700"
         d="M 0.0,0.0 L 5.0,-5.0 L -12.5,0.0 L 5.0,5.0 L 0.0,0.0 z "
         style="fill-rule:evenodd;stroke:#000000;stroke-width:1.0pt;"
         transform="scale(0.8) rotate(180) translate(12.5,0)" />
    </marker>
    <marker
       inkscape:stockid="Arrow1Lend"
       orient="auto"
       refY="0"
       refX="0"
       id="Arrow1Lend-3"
       style="overflow:visible">
      <path
         inkscape:connector-curvature="0"
         id="path8700-1"
         d="M 0,0 5,-5 -12.5,0 5,5 0,0 z"
         style="fill-rule:evenodd;stroke:#000000;stroke-width:1pt"
         transform="matrix(-0.8,0,0,-0.8,-10,0)" />
    </marker>
    <marker
       inkscape:stockid="Arrow1Lend"
       orient="auto"
       refY="0"
       refX="0"
       id="Arrow1Lend-8"
       style="overflow:visible">
      <path
         inkscape:connector-curvature="0"
         id="path8700-8"
         d="M 0,0 5,-5 -12.5,0 5,5 0,0 z"
         style="fill-rule:evenodd;stroke:#000000;stroke-width:1pt"
         transform="matrix(-0.8,0,0,-0.8,-10,0)" />
    </marker>
    <marker
       inkscape:stockid="Arrow2Lend"
       orient="auto"
       refY="0"
       refX="0"
       id="Arrow2Lend-7"
       style="overflow:visible">
      <path
         inkscape:connector-curvature="0"
         id="path8718-7"
         style="fill-rule:evenodd;stroke-width:0.625;stroke-linejoin:round"
         d="M 8.7185878,4.0337352 -2.2072895,0.01601326 8.7185884,-4.0017078 c -1.7454984,2.3720609 -1.7354408,5.6174519 -6e-7,8.035443 z"
         transform="matrix(-1.1,0,0,-1.1,-1.1,0)" />
    </marker>
    <marker
       inkscape:stockid="Arrow2Lend"
       orient="auto"
       refY="0"
       refX="0"
       id="Arrow2Lend-2"
       style="overflow:visible">
      <path
         inkscape:connector-curvature="0"
         id="path8718-6"
         style="fill-rule:evenodd;stroke-width:0.625;stroke-linejoin:round"
         d="M 8.7185878,4.0337352 -2.2072895,0.01601326 8.7185884,-4.0017078 c -1.7454984,2.3720609 -1.7354408,5.6174519 -6e-7,8.035443 z"
         transform="matrix(-1.1,0,0,-1.1,-1.1,0)" />
    </marker>
  </defs>
  <sodipodi:namedview
     id="base"
     pagecolor="#ffffff"
     bordercolor="#666666"
     borderopacity="1.0"
     inkscape:pageopacity="0.0"
     inkscape:pageshadow="2"
     inkscape:zoom="0.98994949"
     inkscape:cx="532.10957"
     inkscape:cy="251.05468"
     inkscape:document-units="px"
     inkscape:current-layer="layer1"
     showgrid="true"
     inkscape:snap-to-guides="true"
     inkscape:window-width="1920"
     inkscape:window-height="1138"
     inkscape:window-x="-8"
     inkscape:window-y="-8"
     inkscape:window-maximized="1">
    <inkscape:grid
       type="xygrid"
       id="grid8121"
       empspacing="5"
       visible="true"
       enabled="true"
       snapvisiblegridlinesonly="true" />
  </sodipodi:namedview>
  <metadata
     id="metadata8118">
    <rdf:RDF>
      <cc:Work
         rdf:about="">
        <dc:format>image/svg+xml</dc:format>
        <dc:type
           rdf:resource="http://purl.org/dc/dcmitype/StillImage" />
        <dc:title></dc:title>
      </cc:Work>
    </rdf:RDF>
  </metadata>
  <g
     inkscape:label="Layer 1"
     inkscape:groupmode="layer"
     id="layer1"
     transform="translate(0,-412.36218)">
    <g
       style="font-size:144px;font-style:normal;font-weight:normal;line-height:125%;letter-spacing:0px;word-spacing:0px;fill:#000000;fill-opacity:1;stroke:none;font-family:Sans;-inkscape-font-specification:Sans"
       id="text8123"
       transform="translate(0,1.9073486e-5)">
      <path
         d="m 217.625,612.36218 -6.0625,0 0,-18.46875 c -5.43753,2.02085 -10.19794,3.03127 -14.28125,3.03125 -3.18751,2e-5 -6.00001,-0.74477 -8.4375,-2.23437 -2.43751,-1.48957 -4.06771,-3.38019 -4.89063,-5.67188 -0.82291,-2.29164 -1.23437,-5.29164 -1.23437,-9 l 0,-13.46875 6.0625,0 0,12.90625 c -1e-5,5.00003 0.91145,8.28649 2.73437,9.85938 1.82291,1.57294 4.01561,2.35939 6.57813,2.35937 4.27081,2e-5 8.76039,-0.94789 13.46875,-2.84375 l 0,-22.28125 6.0625,0 z"
         style="font-size:64px"
         id="path8128"
         inkscape:connector-curvature="0" />
      <path
         d="m 226.84375,579.17468 5.625,0 0,25.3125 15.59375,-25.3125 6.0625,0 0,33.1875 -5.625,0 0,-25.15625 -15.59375,25.15625 -6.0625,0 z"
         style="font-size:64px"
         id="path8130"
         inkscape:connector-curvature="0" />
      <path
         d="m 262.5625,579.17468 5.625,0 0,14.34375 c 1.79166,2e-5 3.04686,-0.34373 3.76562,-1.03125 0.71874,-0.68748 1.77603,-2.68747 3.17188,-6 1.10415,-2.62497 1.99998,-4.35413 2.6875,-5.1875 0.68748,-0.8333 1.47915,-1.3958 2.375,-1.6875 0.89581,-0.29163 2.33331,-0.43746 4.3125,-0.4375 l 1.125,0 0,4.65625 -1.5625,-0.0312 c -1.47919,3e-5 -2.42711,0.21878 -2.84375,0.65625 -0.43752,0.45836 -1.10419,1.82295 -2,4.09375 -0.85419,2.16669 -1.63544,3.66669 -2.34375,4.5 -0.70835,0.83335 -1.8021,1.59377 -3.28125,2.28125 2.41665,0.64585 4.79165,2.89585 7.125,6.75 l 6.15625,10.28125 -6.1875,0 -6,-10.28125 c -1.22918,-2.06249 -2.3021,-3.42186 -3.21875,-4.07812 -0.91668,-0.65624 -2.01043,-0.98436 -3.28125,-0.98438 l 0,15.34375 -5.625,0 z"
         style="font-size:64px"
         id="path8132"
         inkscape:connector-curvature="0" />
      <path
         d="m 288.40625,598.61218 0,-5.65625 17.28125,0 0,5.65625 z"
         style="font-size:64px"
         id="path8134"
         inkscape:connector-curvature="0" />
      <path
         d="m 309.90625,579.17468 5.625,0 0,6.28125 c -10e-6,2.70836 0.16145,4.6719 0.48437,5.89063 0.32291,1.21877 1.09895,2.28127 2.32813,3.1875 1.22915,0.90626 2.77082,1.35939 4.625,1.35937 2.12498,2e-5 4.87498,-0.56248 8.25,-1.6875 l 0,-15.03125 5.625,0 0,33.1875 -5.625,0 0,-13.375 c -3.45835,1.08335 -6.68752,1.62501 -9.6875,1.625 -2.52084,1e-5 -4.7448,-0.64061 -6.67188,-1.92187 -1.92708,-1.28124 -3.23437,-2.84894 -3.92187,-4.70313 -0.6875,-1.85414 -1.03125,-3.89581 -1.03125,-6.125 z"
         style="font-size:64px"
         id="path8136"
         inkscape:connector-curvature="0" />
      <path
         d="m 345.34375,579.17468 5.625,0 0,25.3125 15.59375,-25.3125 6.0625,0 0,33.1875 -5.625,0 0,-25.15625 -15.59375,25.15625 -6.0625,0 z"
         style="font-size:64px"
         id="path8138"
         inkscape:connector-curvature="0" />
      <path
         d="m 381.0625,579.17468 5.625,0 0,14.34375 c 1.79166,2e-5 3.04686,-0.34373 3.76562,-1.03125 0.71874,-0.68748 1.77603,-2.68747 3.17188,-6 1.10415,-2.62497 1.99998,-4.35413 2.6875,-5.1875 0.68748,-0.8333 1.47915,-1.3958 2.375,-1.6875 0.89581,-0.29163 2.33331,-0.43746 4.3125,-0.4375 l 1.125,0 0,4.65625 -1.5625,-0.0312 c -1.47919,3e-5 -2.42711,0.21878 -2.84375,0.65625 -0.43752,0.45836 -1.10419,1.82295 -2,4.09375 -0.85419,2.16669 -1.63544,3.66669 -2.34375,4.5 -0.70835,0.83335 -1.8021,1.59377 -3.28125,2.28125 2.41665,0.64585 4.79165,2.89585 7.125,6.75 l 6.15625,10.28125 -6.1875,0 -6,-10.28125 c -1.22918,-2.06249 -2.3021,-3.42186 -3.21875,-4.07812 -0.91668,-0.65624 -2.01043,-0.98436 -3.28125,-0.98438 l 0,15.34375 -5.625,0 z"
         style="font-size:64px"
         id="path8140"
         inkscape:connector-curvature="0" />
      <path
         d="m 426.875,579.17468 12.96875,0 c 3.18748,4e-5 5.55727,0.26566 7.10937,0.79688 1.55206,0.53128 2.88539,1.50524 4,2.92187 1.11456,1.4167 1.67185,3.11461 1.67188,5.09375 -3e-5,1.58336 -0.32815,2.96357 -0.98438,4.14063 -0.65627,1.1771 -1.64065,2.16147 -2.95312,2.95312 1.56247,0.52085 2.85935,1.49481 3.89062,2.92188 1.03122,1.42709 1.54685,3.1198 1.54688,5.07812 -0.20836,3.14584 -1.33336,5.47917 -3.375,7 -2.04169,1.52084 -5.01044,2.28125 -8.90625,2.28125 l -14.96875,0 z m 5.625,13.96875 6,0 c 2.39582,2e-5 4.04165,-0.12498 4.9375,-0.375 0.89581,-0.24998 1.69789,-0.75519 2.40625,-1.51562 0.70831,-0.7604 1.06248,-1.67185 1.0625,-2.73438 -2e-5,-1.74997 -0.61982,-2.96872 -1.85938,-3.65625 -1.2396,-0.68747 -3.35939,-1.03122 -6.35937,-1.03125 l -6.1875,0 z m 0,14.59375 7.40625,0 c 3.18748,1e-5 5.37498,-0.36978 6.5625,-1.10937 1.18747,-0.73958 1.81247,-2.01562 1.875,-3.82813 -3e-5,-1.06249 -0.34378,-2.04686 -1.03125,-2.95312 -0.68752,-0.90624 -1.58336,-1.47916 -2.6875,-1.71875 -1.10419,-0.23957 -2.87502,-0.35936 -5.3125,-0.35938 l -6.8125,0 z"
         style="font-size:64px"
         id="path8142"
         inkscape:connector-curvature="0" />
      <path
         d="m 478.625,579.17468 26.1875,0 0,33.1875 -5.625,0 0,-28.53125 -14.9375,0 0,28.53125 -5.625,0 z"
         style="font-size:64px"
         id="path8144"
         inkscape:connector-curvature="0" />
      <path
         d="m 513.21875,625.08093 0,-45.90625 5.125,0 0,4.3125 c 1.20832,-1.68747 2.5729,-2.95309 4.09375,-3.79687 1.52082,-0.84372 3.36457,-1.26559 5.53125,-1.26563 2.83331,4e-5 5.33331,0.7292 7.5,2.1875 2.16664,1.45837 3.80205,3.51566 4.90625,6.17188 1.10413,2.65627 1.65622,5.56773 1.65625,8.73437 -3e-5,3.39585 -0.60941,6.45314 -1.82813,9.17188 -1.21877,2.71875 -2.98961,4.80208 -5.3125,6.25 -2.32294,1.44791 -4.76564,2.17187 -7.32812,2.17187 -1.87502,0 -3.55731,-0.39583 -5.04688,-1.1875 -1.48959,-0.79166 -2.71355,-1.79166 -3.67187,-3 l 0,16.15625 z m 5.09375,-29.125 c -10e-6,4.27085 0.86457,7.42709 2.59375,9.46875 1.72915,2.04167 3.8229,3.06251 6.28125,3.0625 2.49998,1e-5 4.6406,-1.05728 6.42187,-3.17187 1.78123,-2.11458 2.67185,-5.39061 2.67188,-9.82813 -3e-5,-4.22914 -0.86982,-7.39581 -2.60938,-9.5 -1.7396,-2.10414 -3.81772,-3.15622 -6.23437,-3.15625 -2.39585,3e-5 -4.51564,1.11982 -6.35938,3.35938 -1.84376,2.2396 -2.76563,5.49481 -2.76562,9.76562 z"
         style="font-size:64px"
         id="path8146"
         inkscape:connector-curvature="0" />
      <path
         d="m 546.75,595.76843 c 0,-6.14581 1.70833,-10.69789 5.125,-13.65625 2.85416,-2.4583 6.33332,-3.68746 10.4375,-3.6875 4.56248,4e-5 8.29164,1.49483 11.1875,4.48438 2.8958,2.98961 4.34372,7.11981 4.34375,12.39062 -3e-5,4.27085 -0.64066,7.63022 -1.92188,10.07813 -1.28128,2.44792 -3.14586,4.34896 -5.59375,5.70312 -2.44793,1.35417 -5.11981,2.03125 -8.01562,2.03125 -4.64585,0 -8.40105,-1.48958 -11.26563,-4.46875 -2.86458,-2.97916 -4.29687,-7.27082 -4.29687,-12.875 z m 5.78125,0 c -10e-6,4.25001 0.92707,7.4323 2.78125,9.54688 1.85415,2.11459 4.18749,3.17188 7,3.17187 2.79165,1e-5 5.11456,-1.06249 6.96875,-3.1875 1.85414,-2.12499 2.78122,-5.36457 2.78125,-9.71875 -3e-5,-4.10414 -0.93232,-7.21352 -2.79688,-9.32812 -1.8646,-2.11456 -4.18231,-3.17185 -6.95312,-3.17188 -2.81251,3e-5 -5.14585,1.05211 -7,3.15625 -1.85418,2.10419 -2.78126,5.28127 -2.78125,9.53125 z"
         style="font-size:64px"
         id="path8148"
         inkscape:connector-curvature="0" />
      <path
         d="m 588.90625,579.17468 23.125,0 0,28.5625 3.59375,0 0,14.03125 -4.625,0 0,-9.40625 -26.125,0 0,9.40625 -4.625,0 0,-14.03125 2.96875,0 c 3.95833,-5.37499 5.85416,-14.89581 5.6875,-28.5625 z m 4.6875,4.65625 c -0.41668,10.77085 -2.08334,18.7396 -5,23.90625 l 17.84375,0 0,-23.90625 z"
         style="font-size:64px"
         id="path8150"
         inkscape:connector-curvature="0" />
      <path
         d="m 643.5,608.26843 c -2.08336,1.77084 -4.08856,3.02084 -6.01563,3.75 -1.9271,0.72917 -3.9948,1.09375 -6.20312,1.09375 -3.64584,0 -6.44792,-0.89062 -8.40625,-2.67187 -1.95834,-1.78125 -2.9375,-4.05729 -2.9375,-6.82813 0,-1.62499 0.36979,-3.10936 1.10937,-4.45312 0.73958,-1.34374 1.70833,-2.42186 2.90625,-3.23438 1.19791,-0.81248 2.54687,-1.42706 4.04688,-1.84375 1.10416,-0.29165 2.77082,-0.5729 5,-0.84375 4.54165,-0.54164 7.88539,-1.18748 10.03125,-1.9375 0.0208,-0.77081 0.0312,-1.26039 0.0312,-1.46875 -3e-5,-2.29164 -0.53127,-3.90622 -1.59375,-4.84375 -1.43752,-1.2708 -3.57294,-1.90622 -6.40625,-1.90625 -2.64585,3e-5 -4.59897,0.46357 -5.85938,1.39063 -1.26042,0.92711 -2.19271,2.56773 -2.79687,4.92187 l -5.5,-0.75 c 0.5,-2.35414 1.32291,-4.25518 2.46875,-5.70312 1.14583,-1.44789 2.80207,-2.56247 4.96875,-3.34375 2.16665,-0.78122 4.67707,-1.17184 7.53125,-1.17188 2.83331,4e-5 5.13539,0.33337 6.90625,1 1.77081,0.6667 3.07289,1.50524 3.90625,2.51563 0.8333,1.01044 1.41664,2.28648 1.75,3.82812 0.18747,0.95836 0.28122,2.68753 0.28125,5.1875 l 0,7.5 c -3e-5,5.22918 0.11976,8.53647 0.35937,9.92188 0.23956,1.38542 0.71351,2.71354 1.42188,3.98437 l -5.875,0 c -0.58336,-1.16666 -0.95836,-2.53124 -1.125,-4.09375 z m -0.46875,-12.5625 c -2.04169,0.83335 -5.10419,1.54168 -9.1875,2.125 -2.31251,0.33335 -3.94793,0.70835 -4.90625,1.125 -0.95834,0.41668 -1.69793,1.02606 -2.21875,1.82813 -0.52084,0.80209 -0.78126,1.69272 -0.78125,2.67187 -10e-6,1.50001 0.5677,2.75001 1.70312,3.75 1.13541,1.00001 2.79687,1.50001 4.98438,1.5 2.16665,1e-5 4.09373,-0.47395 5.78125,-1.42187 1.68748,-0.94791 2.92706,-2.24479 3.71875,-3.89063 0.60414,-1.27082 0.90622,-3.14582 0.90625,-5.625 z"
         style="font-size:64px"
         id="path8152"
         inkscape:connector-curvature="0" />
      <path
         d="m 657.4375,579.17468 5.625,0 0,14.34375 c 1.79166,2e-5 3.04686,-0.34373 3.76562,-1.03125 0.71874,-0.68748 1.77603,-2.68747 3.17188,-6 1.10415,-2.62497 1.99998,-4.35413 2.6875,-5.1875 0.68748,-0.8333 1.47915,-1.3958 2.375,-1.6875 0.89581,-0.29163 2.33331,-0.43746 4.3125,-0.4375 l 1.125,0 0,4.65625 -1.5625,-0.0312 c -1.47919,3e-5 -2.42711,0.21878 -2.84375,0.65625 -0.43752,0.45836 -1.10419,1.82295 -2,4.09375 -0.85419,2.16669 -1.63544,3.66669 -2.34375,4.5 -0.70835,0.83335 -1.8021,1.59377 -3.28125,2.28125 2.41665,0.64585 4.79165,2.89585 7.125,6.75 l 6.15625,10.28125 -6.1875,0 -6,-10.28125 c -1.22918,-2.06249 -2.3021,-3.42186 -3.21875,-4.07812 -0.91668,-0.65624 -2.01043,-0.98436 -3.28125,-0.98438 l 0,15.34375 -5.625,0 z"
         style="font-size:64px"
         id="path8154"
         inkscape:connector-curvature="0" />
      <path
         d="m 685.65625,579.17468 5.625,0 0,28.53125 12.8125,0 0,-28.53125 5.625,0 0,28.53125 12.84375,0 0,-28.53125 5.59375,0 0,33.1875 -42.5,0 z"
         style="font-size:64px"
         id="path8156"
         inkscape:connector-curvature="0" />
      <path
         d="m 759.5625,601.67468 5.8125,0.71875 c -0.9167,3.39584 -2.61461,6.03126 -5.09375,7.90625 -2.47919,1.875 -5.64586,2.8125 -9.5,2.8125 -4.85418,0 -8.70313,-1.49479 -11.54688,-4.48437 -2.84375,-2.98958 -4.26562,-7.18228 -4.26562,-12.57813 0,-5.58331 1.4375,-9.91664 4.3125,-13 2.87499,-3.0833 6.60415,-4.62496 11.1875,-4.625 4.43748,4e-5 8.06247,1.51045 10.875,4.53125 2.81247,3.02086 4.21872,7.27086 4.21875,12.75 -3e-5,0.33335 -0.0104,0.83335 -0.0312,1.5 l -24.75,0 c 0.20832,3.64585 1.23957,6.43751 3.09375,8.375 1.85415,1.93751 4.16665,2.90626 6.9375,2.90625 2.06248,1e-5 3.82289,-0.54166 5.28125,-1.625 1.45831,-1.08332 2.61456,-2.81249 3.46875,-5.1875 z m -18.46875,-9.09375 18.53125,0 c -0.25003,-2.79164 -0.95836,-4.88539 -2.125,-6.28125 -1.79169,-2.16664 -4.1146,-3.24997 -6.96875,-3.25 -2.58335,3e-5 -4.75522,0.86461 -6.51563,2.59375 -1.76042,1.72919 -2.73438,4.04169 -2.92187,6.9375 z"
         style="font-size:64px"
         id="path8158"
         inkscape:connector-curvature="0" />
      <path
         d="m 772.5,579.17468 5.625,0 0,13.8125 15.59375,0 0,-13.8125 5.625,0 0,33.1875 -5.625,0 0,-14.71875 -15.59375,0 0,14.71875 -5.625,0 z"
         style="font-size:64px"
         id="path8160"
         inkscape:connector-curvature="0" />
    </g>
    <text
       xml:space="preserve"
       style="font-size:64px;font-style:normal;font-weight:normal;line-height:125%;letter-spacing:0px;word-spacing:0px;fill:#000000;fill-opacity:1;stroke:none;font-family:Sans;-inkscape-font-specification:Sans"
       x="352.23438"
       y="747.79449"
       id="text9137"
       sodipodi:linespacing="125%"><tspan
         sodipodi:role="line"
         id="tspan9139"
         x="352.23438"
         y="747.79449">Не плохо</tspan></text>
    <text
       xml:space="preserve"
       style="font-size:64px;font-style:normal;font-weight:normal;line-height:125%;letter-spacing:0px;word-spacing:0px;fill:#000000;fill-opacity:1;stroke:none;font-family:Sans;-inkscape-font-specification:Sans"
       x="372.57813"
       y="871.25806"
       id="text9141"
       sodipodi:linespacing="125%"><tspan
         sodipodi:role="line"
         x="372.57813"
         y="871.25806"
         id="tspan9145">Хорошо </tspan></text>
    <text
       xml:space="preserve"
       style="font-size:64px;font-style:normal;font-weight:normal;line-height:125%;letter-spacing:0px;word-spacing:0px;fill:#000000;fill-opacity:1;stroke:none;font-family:Sans;-inkscape-font-specification:Sans"
       x="341.53125"
       y="1002.3622"
       id="text9173"
       sodipodi:linespacing="125%"><tspan
         sodipodi:role="line"
         id="tspan9175"
         x="341.53125"
         y="1002.3622">Идеально</tspan></text>
    <path
       style="fill:none;stroke:#000000;stroke-width:1px;stroke-linecap:butt;stroke-linejoin:miter;stroke-opacity:1;marker-end:url(#Arrow2Lend)"
       d="m 491.01363,630.12529 c 0,50 0,50 0,50 l 0,10"
       id="path11128"
       inkscape:connector-curvature="0" />
    <path
       style="fill:none;stroke:#000000;stroke-width:1px;stroke-linecap:butt;stroke-linejoin:miter;stroke-opacity:1;marker-end:url(#Arrow2Lend)"
       d="m 491.01363,759.57319 c 0,50 0,50 0,50 l 0,10"
       id="path11128-1"
       inkscape:connector-curvature="0" />
    <path
       style="fill:none;stroke:#000000;stroke-width:1px;stroke-linecap:butt;stroke-linejoin:miter;stroke-opacity:1;marker-end:url(#Arrow2Lend)"
       d="m 491.01363,889.02109 c 0,50 0,50 0,50 l 0,10"
       id="path11128-0"
       inkscape:connector-curvature="0" />
  </g>
</svg>
