<?xml version="1.0" encoding="UTF-8" standalone="no"?>
<!-- Created with Inkscape (http://www.inkscape.org/) -->

<svg
   xmlns:dc="http://purl.org/dc/elements/1.1/"
   xmlns:cc="http://creativecommons.org/ns#"
   xmlns:rdf="http://www.w3.org/1999/02/22-rdf-syntax-ns#"
   xmlns:svg="http://www.w3.org/2000/svg"
   xmlns="http://www.w3.org/2000/svg"
   xmlns:sodipodi="http://sodipodi.sourceforge.net/DTD/sodipodi-0.dtd"
   xmlns:inkscape="http://www.inkscape.org/namespaces/inkscape"
   width="1024"
   height="640"
   id="svg11929"
   version="1.1"
   inkscape:version="0.48.5 r10040"
   sodipodi:docname="category.svg">
  <defs
     id="defs11931" />
  <sodipodi:namedview
     id="base"
     pagecolor="#ffffff"
     bordercolor="#666666"
     borderopacity="1.0"
     inkscape:pageopacity="0.0"
     inkscape:pageshadow="2"
     inkscape:zoom="0.98994949"
     inkscape:cx="486.51829"
     inkscape:cy="225.54458"
     inkscape:document-units="px"
     inkscape:current-layer="layer1"
     showgrid="false"
     inkscape:window-width="1920"
     inkscape:window-height="1138"
     inkscape:window-x="-8"
     inkscape:window-y="-8"
     inkscape:window-maximized="1" />
  <metadata
     id="metadata11934">
    <rdf:RDF>
      <cc:Work
         rdf:about="">
        <dc:format>image/svg+xml</dc:format>
        <dc:type
           rdf:resource="http://purl.org/dc/dcmitype/StillImage" />
        <dc:title></dc:title>
      </cc:Work>
    </rdf:RDF>
  </metadata>
  <g
     inkscape:label="Layer 1"
     inkscape:groupmode="layer"
     id="layer1"
     transform="translate(0,-412.36217)">
    <g
       transform="matrix(0.406,0,0,0.406,11.58224,477.85008)"
       id="layer1-9"
       inkscape:label="Layer 1">
      <rect
         transform="matrix(0.70710678,-0.70710678,0.70710678,0.70710678,0,0)"
         ry="45"
         rx="45"
         y="444.13242"
         x="-470.43497"
         height="600"
         width="600"
         id="rect5800"
         style="color:#000000;fill:#ffffff;fill-opacity:1;fill-rule:nonzero;stroke:none;stroke-width:3.54299998;marker:none;visibility:visible;display:inline;overflow:visible;enable-background:accumulate" />
      <path
         inkscape:connector-curvature="0"
         id="rect5810"
         d="m 20.292274,621.94792 c -13.7107988,13.7108 -13.7107988,35.78667 0,49.49747 L 380.91677,1032.0698 c 13.7108,13.7108 35.7867,13.7108 49.4975,0 l 360.6244,-360.62441 c 13.7108,-13.7108 13.7108,-35.78667 0,-49.49747 L 430.41427,261.32346 c -13.7108,-13.7108 -35.7867,-13.7108 -49.4975,0 L 20.292274,621.94792 z m 7.071101,7.07107 360.624395,-360.62443 c 9.7935,-9.7935 25.562,-9.7935 35.3554,0 l 360.6244,360.62443 c 9.7935,9.79343 9.7935,25.56191 0,35.35534 l -360.6244,360.62437 c -9.7934,9.7935 -25.5619,9.7935 -35.3554,0 L 27.363375,664.37433 c -9.793401,-9.79343 -9.793401,-25.56191 0,-35.35534 z"
         style="color:#000000;fill:#000000;fill-opacity:1;fill-rule:nonzero;stroke:none;stroke-width:3.54299998;marker:none;visibility:visible;display:inline;overflow:visible;enable-background:accumulate" />
      <path
         inkscape:connector-curvature="0"
         id="rect5814"
         d="m 165.24917,614.87685 c -17.6282,17.62817 -17.6282,46.01144 0,63.63962 l 208.5965,208.59646 c 17.6282,17.6282 46.0115,17.6282 63.6396,0 l 208.5965,-208.59646 c 17.6282,-17.62818 17.6282,-46.01145 0,-63.63962 L 437.48527,406.28036 c -17.6281,-17.6282 -46.0114,-17.6282 -63.6396,0 l -208.5965,208.59649 z m 7.0711,7.07107 208.5965,-208.59646 c 13.7108,-13.7108 35.7867,-13.7108 49.4975,0 l 208.5965,208.59646 c 13.7108,13.7108 13.7108,35.78667 0,49.49747 l -208.5965,208.59644 c -13.7108,13.7108 -35.7867,13.7108 -49.4975,0 L 172.32027,671.44539 c -13.7108,-13.7108 -13.7108,-35.78667 0,-49.49747 z"
         style="color:#000000;fill:#000000;fill-opacity:1;fill-rule:nonzero;stroke:none;stroke-width:3.54299998;marker:none;visibility:visible;display:inline;overflow:visible;enable-background:accumulate" />
      <rect
         transform="matrix(0.70710678,-0.70710678,0.70710678,0.70710678,0,0)"
         ry="35"
         rx="35"
         style="color:#000000;fill:#ffcc00;fill-opacity:1;fill-rule:nonzero;stroke:none;stroke-width:3.54299998;marker:none;visibility:visible;display:inline;overflow:visible;enable-background:accumulate"
         id="rect5802"
         width="365"
         height="365"
         x="-352.93503"
         y="561.63239" />
      <rect
         transform="matrix(0.70710678,-0.70710678,0.70710678,0.70710678,0,0)"
         style="color:#000000;fill:none;stroke:#000000;stroke-width:2;stroke-miterlimit:4;stroke-opacity:1;stroke-dasharray:none;marker:none;visibility:visible;display:inline;overflow:visible;enable-background:accumulate"
         id="rect5858"
         width="598"
         height="598"
         x="-469.43497"
         y="445.13242"
         rx="44"
         ry="44" />
    </g>
    <g
       transform="matrix(0.58,0,0,0.58,356.7573,313.33874)"
       id="layer1-6"
       inkscape:label="Layer 1">
      <path
         transform="matrix(13.570336,0,0,10.181443,1490.3988,-3648.6681)"
         d="m -65.613615,432.25998 c 0,16.27327 -9.89766,29.46537 -22.107042,29.46537 -12.209383,0 -22.107043,-13.1921 -22.107043,-29.46537 0,-16.27328 9.89766,-29.46537 22.107043,-29.46537 12.209382,0 22.107042,13.19209 22.107042,29.46537 z"
         sodipodi:ry="29.465372"
         sodipodi:rx="22.107042"
         sodipodi:cy="432.25998"
         sodipodi:cx="-87.720657"
         id="path5334"
         style="color:#000000;fill:#ffffff;fill-opacity:1;fill-rule:nonzero;stroke:none;stroke-width:1px;marker:none;visibility:visible;display:inline;overflow:visible;enable-background:accumulate"
         sodipodi:type="arc" />
      <path
         sodipodi:type="arc"
         style="color:#000000;fill:none;stroke:#000000;stroke-width:0.17071831;stroke-miterlimit:4;stroke-opacity:1;stroke-dasharray:none;marker:none;visibility:visible;display:inline;overflow:visible;enable-background:accumulate"
         id="path3003"
         sodipodi:cx="-87.720657"
         sodipodi:cy="432.25998"
         sodipodi:rx="22.107042"
         sodipodi:ry="29.465372"
         d="m -65.613615,432.25998 c 0,16.27327 -9.89766,29.46537 -22.107042,29.46537 -12.209383,0 -22.107043,-13.1921 -22.107043,-29.46537 0,-16.27328 9.89766,-29.46537 22.107043,-29.46537 12.209382,0 22.107042,13.19209 22.107042,29.46537 z"
         transform="matrix(13.525102,0,0,10.147505,1486.4308,-3633.998)" />
      <path
         id="path22613"
         transform="translate(0,452.36218)"
         d="M 300,20 C 145.36027,20 20,145.36027 20,300 20,454.63973 145.36027,580 300,580 454.63973,580 580,454.63973 580,300 580,145.36027 454.63973,20 300,20 z m -196.9375,221.9375 393.875,0 c 5.36129,0 9.6875,4.32621 9.6875,9.6875 l 0,96.75 c 0,5.36129 -4.32621,9.6875 -9.6875,9.6875 l -393.875,0 c -5.36129,0 -9.6875,-4.32621 -9.6875,-9.6875 l 0,-96.75 c 0,-5.36129 4.32621,-9.6875 9.6875,-9.6875 z"
         style="color:#000000;fill:#ff0000;fill-opacity:1;fill-rule:nonzero;stroke:none;stroke-width:1px;marker:none;visibility:visible;display:inline;overflow:visible;enable-background:accumulate"
         inkscape:connector-curvature="0" />
    </g>
    <g
       transform="matrix(0.3364,0,0,0.3364,739.28883,574.9142)"
       id="layer1-3"
       inkscape:label="Layer 1">
      <rect
         ry="45"
         rx="45"
         style="color:#000000;fill:#ffffff;fill-opacity:1;fill-rule:nonzero;stroke:none;stroke-width:3.54299998;marker:none;visibility:visible;display:inline;overflow:visible;enable-background:accumulate"
         id="rect4575"
         width="700"
         height="1050"
         x="-3.4487402e-005"
         y="2.3621831" />
      <path
         id="rect4571"
         d="m 45.000005,22.362172 c -13.85,0 -25,11.15 -25,25 l 0,960.000028 c 0,13.85 11.15,25 25,25 l 610.000015,0 c 13.85,0 25,-11.15 25,-25 l 0,-960.000028 c 0,-13.85 -11.15,-25 -25,-25 l -610.000015,0 z M 110.625,177.36216 l 478.75002,0 c 24.93,0 45,20.07 45,45 l 0,478.74999 c 0,24.93 -20.07,45 -45,45 l -478.75002,0 c -24.929995,0 -44.999995,-20.07 -44.999995,-45 l 0,-478.74999 c 0,-24.93 20.07,-45 44.999995,-45 z"
         style="color:#000000;fill:#0d69e1;fill-opacity:1;fill-rule:nonzero;stroke:none;stroke-width:3.54299998;marker:none;visibility:visible;display:inline;overflow:visible;enable-background:accumulate"
         inkscape:connector-curvature="0" />
      <path
         style="fill:#000000;fill-opacity:1;stroke:none"
         d="m 393.75,680.48715 0,-54.6875 c -34.71891,19.4567 -70.80134,23.2326 -108.28125,10.9375 45.12594,-32.8674 73.89506,-76.6394 86.40625,-131.25 -23.86606,11.9365 -49.01426,19.257 -75.46875,21.875 47.40094,-39.9821 67.80298,-90.8822 60.15625,-153.125 -11.41219,6.707 -23.82308,11.4165 -37.1875,14.2188 21.53036,-41.4594 28.77941,-85.5155 20.78125,-132.34376 31.19747,37.61067 67.65106,68.24206 109.375,91.87496 L 411.25,364.39345 c 25.30259,49.6876 63.31106,85.6824 113.75,108.2812 -22.67945,16.3199 -47.98675,24.0779 -76.01563,22.9688 37.78819,45.1115 84.63941,73.9094 140.54685,86.4062 -38.5697,28.3011 -81.92283,42.2522 -130.15622,41.5625 l 0,56.875 z"
         inkscape:connector-curvature="0"
         sodipodi:nodetypes="cccccccccccccccc"
         id="path4614" />
      <path
         inkscape:connector-curvature="0"
         d="m 142.1875,614.86215 6.5625,0 -17.5,65.625 17.5,0 17.5,-65.625 39.375,0 17.5,65.625 17.5,0 -17.5,-65.625 6.5625,0 0,-21.875 -87.5,0 z m 87.5,-21.875 c 6.04062,0 10.93749,4.8969 10.93749,10.9375 0,6.0407 -4.89687,10.9375 -10.93749,10.9375 l 0,-10.9375 z m -87.5,21.875 c -6.04062,0 -10.93749,-4.8968 -10.93749,-10.9375 0,-6.0406 4.89687,-10.9375 10.93749,-10.9375 0,0 0,0 0,0"
         style="fill:#000000;fill-opacity:1;stroke:none"
         id="path4566" />
      <rect
         y="3.3621831"
         x="1"
         height="1048"
         width="698"
         id="rect4599"
         style="color:#000000;fill:none;stroke:#000000;stroke-width:1.99999988;stroke-miterlimit:4;stroke-opacity:1;stroke-dasharray:none;marker:none;visibility:visible;display:inline;overflow:visible;enable-background:accumulate"
         rx="44"
         ry="44" />
    </g>
    <text
       xml:space="preserve"
       style="font-size:64px;font-style:normal;font-weight:normal;line-height:125%;letter-spacing:0px;word-spacing:0px;fill:#000000;fill-opacity:1;stroke:none;font-family:Sans;-inkscape-font-specification:Sans"
       x="81.391747"
       y="976.60071"
       id="text12492"
       sodipodi:linespacing="125%"><tspan
         sodipodi:role="line"
         id="tspan12494"
         x="81.391747"
         y="976.60071"
         style="font-size:36px">приоритета</tspan></text>
    <text
       xml:space="preserve"
       style="font-size:64px;font-style:normal;font-weight:normal;line-height:125%;letter-spacing:0px;word-spacing:0px;fill:#000000;fill-opacity:1;stroke:none;font-family:Sans;-inkscape-font-specification:Sans"
       x="413.81979"
       y="976.60071"
       id="text12496"
       sodipodi:linespacing="125%"><tspan
         sodipodi:role="line"
         id="tspan12498"
         x="413.81979"
         y="976.60071"
         style="font-size:36px">запрещающие</tspan></text>
    <text
       xml:space="preserve"
       style="font-size:40px;font-style:normal;font-weight:normal;line-height:125%;letter-spacing:0px;word-spacing:0px;fill:#000000;fill-opacity:1;stroke:none;font-family:Sans;-inkscape-font-specification:Sans"
       x="713.79224"
       y="976.60071"
       id="text12500"
       sodipodi:linespacing="125%"><tspan
         sodipodi:role="line"
         id="tspan12502"
         x="713.79224"
         y="976.60071"
         style="font-size:36px">информационные</tspan></text>
  </g>
</svg>
